<svg xmlns="http://www.w3.org/2000/svg" viewBox="0 0 389.888 329.209">
  <defs>
    <style>
      .cls-1, .cls-9 {
        fill: #198382;
      }

      .cls-1, .cls-2, .cls-3, .cls-4, .cls-5, .cls-6, .cls-7, .cls-8 {
        stroke: #198382;
      }

      .cls-11, .cls-2, .cls-3, .cls-4, .cls-5, .cls-6, .cls-7, .cls-8 {
        fill: none;
      }

      .cls-2 {
        stroke-width: 2px;
      }

      .cls-3, .cls-6, .cls-7 {
        stroke-linecap: round;
      }

      .cls-3, .cls-5, .cls-7 {
        stroke-width: 3px;
      }

      .cls-4 {
        stroke-width: 4px;
      }

      .cls-6, .cls-8 {
        stroke-width: 5px;
      }

      .cls-7, .cls-8 {
        stroke-linejoin: round;
      }

      .cls-10 {
        stroke: none;
      }
    </style>
  </defs>
  <g id="Group_17" data-name="Group 17" transform="translate(88.345 -1884.469)">
    <path id="Path_50" data-name="Path 50" class="cls-1" d="M488.155,227.625a39.422,39.422,0,0,0-5.119-18.514c-5.4-9.73,2.239-12.719,7.951-20.363s14.649-6.057,14.649-6.057l15.63,6.057,16.88,9.658,15.18,14.12,9.234,12.652,8.317,15.67,8.228,17.609,6.888,12.488,4.259,6.306,1.137,9.034-3.418,22.787-10.17-10.6h-4.83l-.955,3.59,3.339,14.675v9.054l-3.339,7.9-2.532,2.321-3.847-9.158-5.806-1.067-6.5,4.025-2.544,6.2-1.807-10.224-3.079-6.5-5.559-10.22-1.725-3.584,1.725-1.18,5.559,4.764v-2.051l-7.284-18.5-5.086-7.661-10.953-10.9-5.889-9.4,9.589,1.977,1.507-1.977-18.862-17.886-10.658-9.63Z" transform="translate(-291.801 1708.328)"/>
    <path id="Exclusion_5" data-name="Exclusion 5" class="cls-1" d="M82.142,140.269h0a10.213,10.213,0,0,0-1.17-.718,59.1,59.1,0,0,1-8.192-5.51,33.631,33.631,0,0,1-9.06-10.828,19.018,19.018,0,0,0-8.23-8.667A23.628,23.628,0,0,0,44.5,112.158a46.375,46.375,0,0,0-9.039.98,18.522,18.522,0,0,1-3.589.36,17.658,17.658,0,0,1-6.657-1.323,24.161,24.161,0,0,1-6.04-3.65c-3.47-2.8-6.95-6.851-10.637-12.378-3.673-5.5-6.176-9.445-7.466-13.878S-.335,72.824.662,65A58.126,58.126,0,0,1,4.915,50.761,118.457,118.457,0,0,1,13.6,34.084,100.081,100.081,0,0,1,25.09,18.874c4.386-4.679,8.65-7.99,12.673-9.842,1.4-.643,2.735-1.272,4.03-1.881C50.288,3.155,57,0,65.314,0c6.1,0,12.75,1.688,20.925,5.312a42.1,42.1,0,0,1,11.734,7.351,23.982,23.982,0,0,1,5.969,8.376c2.484,5.876,2.4,12.217,2.322,18.93-.019,1.543-.039,3.138-.025,4.722.066,7.718-2.175,14.5-4.152,20.48-1.877,5.679-3.5,10.583-2.638,14.8.948,4.651,3.123,9.153,5.225,13.507,1.773,3.671,3.447,7.138,4.117,10.234,1.434,6.622.014,19.371,0,19.5l-11.673,2.974-10.878,5.588-4.1,8.493ZM56.557,54.151h0a24.269,24.269,0,0,0-9.46,1.79,19.785,19.785,0,0,0-6.673,4.582,15.678,15.678,0,0,0-4.01,7.876c-.421,2.333.354,4.979,2.243,7.652a27.991,27.991,0,0,0,8.326,7.391,31.986,31.986,0,0,0,11.01,4.195,16.129,16.129,0,0,0,2.586.206c5.505,0,10.513-2.669,13.745-4.908,3.944-2.733,6.795-5.9,7.774-7.691a6.156,6.156,0,0,0,.523-3.353,13.729,13.729,0,0,0-1.3-4.616,20,20,0,0,0-6.029-7.3,28.451,28.451,0,0,0-11.884-5.107,35.446,35.446,0,0,0-6.853-.71Z" transform="translate(-13.434 1943.963)"/>
    <g id="Ellipse_6" data-name="Ellipse 6" class="cls-2" transform="translate(32.152 2003)">
      <ellipse class="cls-10" cx="15" cy="15" rx="15" ry="15"/>
      <ellipse class="cls-11" cx="15" cy="15" rx="14" ry="14"/>
    </g>
    <path id="Path_73" data-name="Path 73" class="cls-1" d="M108.048,380a35.175,35.175,0,0,0,10.693-8.3c5.347-5.949,7.722-13.477,9.162-21.144s-7.863-9.217-9.162-19.913-.919-15.581-10.693-14.283S94.381,330.64,94.381,330.64L92.21,345.374v-5.528l5.513,4.346,3.148,4.533-5.307,21.437-1.183,12.361Z" transform="translate(-142.712 1730.672)"/>
    <g id="Ellipse_7" data-name="Ellipse 7" class="cls-1" transform="translate(41.752 2012.6)">
      <ellipse class="cls-10" cx="6" cy="6" rx="6" ry="6"/>
      <ellipse class="cls-11" cx="6" cy="6" rx="5.5" ry="5.5"/>
    </g>
    <path id="Path_85" data-name="Path 85" class="cls-1" d="M341.154,379.859s2.372-2.923,5.271-6.34,5.447-12.91,4.115-23.386-14.243-25.075-22.484-32.574-15.289-9.023-29.755-6.614-16.75,12.013-18.145,22.731,8.393,15.137,15.947,20.106,6.458,15.306,6.435,17.765-4.237,4.392-4.237,4.392Z" transform="translate(-107.296 1730.746)"/>
    <path id="Path_52" data-name="Path 52" class="cls-3" d="M223.281,419.8s11.5,6.967,22.563,6.717,28.96,1.326,40.836-16.564,21.18-36.559,33.7-38.443" transform="translate(-118.461 1730.035)"/>
    <path id="Path_53" data-name="Path 53" class="cls-3" d="M320.935,419.8s-11.563,6.967-22.691,6.717-29.124,1.326-41.067-16.564-21.3-36.559-33.9-38.443" transform="translate(-215.449 1730.035)"/>
    <path id="Path_54" data-name="Path 54" class="cls-4" d="M222.848,384.764c15.3-.319,25.386-6.909,30.375-17.1s8.522-22.841,0-28.115-20.328-7.337-30.375-7.07" transform="translate(-118.538 1734.719)"/>
    <path id="Path_55" data-name="Path 55" class="cls-4" d="M258.185,384.764c-15.221-.319-25.252-6.909-30.214-17.1s-8.477-22.841,0-28.115,20.22-7.337,30.214-7.07" transform="translate(-153.631 1734.719)"/>
    <path id="Path_56" data-name="Path 56" class="cls-5" d="M256.906,301.333c-2.241-4.029,1.841-17.039,18.982-20.382,11.073-2.159,18.685.856,23.351,5.661a15.653,15.653,0,0,1,4.074,7.876c1.435,7.823-10.86,17.462-21.921,19.237S259.147,305.362,256.906,301.333Z" transform="translate(-116.508 1717.874)"/>
    <path id="Path_58" data-name="Path 58" class="cls-3" d="M309.107,366.712s45.865,1.59,67.42,6.968,26.016,21.355,24.637,40.065S393.678,466.6,372,468.319c-25.46,1.653-28.716-1.4-49.3-6.323-20.366-5.558-37.329-11.346-50.005-15.95-8.537-4.216-13.566-9.195-25.7-9.793s-23.036,0-23.036,0" transform="translate(-118.343 1740.749)"/>
    <path id="Path_59" data-name="Path 59" class="cls-3" d="M312.82,365.964s-42.449,2.471-64,7.849-26.016,21.355-24.637,40.065,7.485,52.851,29.164,54.574c25.46,1.653,28.715-1.4,49.3-6.323,20.366-5.558,37.329-11.346,50.005-15.95,8.537-4.216,13.566-9.195,25.7-9.793s23.036,0,23.036,0" transform="translate(-295.784 1740.617)"/>
    <path id="Path_60" data-name="Path 60" class="cls-6" d="M280.158,437.945s-14.415,15.206-29.816,17.643-15.778,3.675-24.194,3.262" transform="translate(-121.485 1751.59)"/>
    <path id="Path_61" data-name="Path 61" class="cls-6" d="M226.148,437.945s13.728,14.481,28.395,16.8,15.026,3.5,23.041,3.106" transform="translate(-172.993 1752.59)"/>
    <path id="Path_63" data-name="Path 63" class="cls-3" d="M246.6,349.625c-10.551,1.671-15.495,6.311-16.807,11.407" transform="translate(-119.826 1737.741)"/>
    <path id="Path_64" data-name="Path 64" class="cls-3" d="M229.789,349.625c10.551,1.671,15.495,6.311,16.807,11.407" transform="translate(-148.394 1737.741)"/>
    <path id="Path_65" data-name="Path 65" class="cls-3" d="M39.431,3.36a24.394,24.394,0,0,0-10.45-4.385c-5.959-.854-8.476.268-14.208,3.955S3.428,16.428,1.151,32.156s.042,24.08,3.735,31.822S15.768,78.242,21.422,82.756" transform="matrix(1, -0.017, 0.017, 1, 237.484, 2124.015)"/>
    <path id="Path_66" data-name="Path 66" class="cls-7" d="M268.073,212.58c29.471.124,52.71,18.015,52.71,18.015s21.442,20.016,25.3,24.382-10.566,0-10.566,0,3.308,8.869,13.254,17.145,17.384,32.741,17.384,32.741-5.628-6-8.113-5.754,5.1,10.465,8.113,17.59,5.384,20.542,3.792,18.911" transform="translate(-110.576 1713.614)"/>
    <path id="Path_67" data-name="Path 67" class="cls-2" d="M335.26,460.726s-5.729-4.757-9.28-16.488-1.472-26.7,0-35.183,6.544-21.86,6.544-21.86" transform="translate(-99.55 1744.355)"/>
    <path id="Path_68" data-name="Path 68" class="cls-2" d="M335.149,460s-5.672-4.71-9.188-16.324-1.458-26.438,0-34.834,6.479-21.644,6.479-21.644" transform="translate(-107.782 1743.073)"/>
    <path id="Path_69" data-name="Path 69" class="cls-2" d="M334.558,459.517s-5.37-4.679-8.7-16.216-1.38-26.263,0-34.6,6.135-21.5,6.135-21.5" transform="translate(-116.014 1741.897)"/>
    <path id="Path_70" data-name="Path 70" class="cls-2" d="M333.784,458.07s-4.976-4.585-8.06-15.892-1.279-25.738,0-33.912,5.684-21.071,5.684-21.071" transform="translate(-124.247 1740.721)"/>
    <path id="Path_71" data-name="Path 71" class="cls-2" d="M333.225,456.543s-4.691-4.486-7.6-15.55-1.206-25.183,0-33.181,5.359-20.617,5.359-20.617" transform="translate(-132.479 1739.545)"/>
    <path id="Path_72" data-name="Path 72" class="cls-2" d="M293.139,411.009s-1.095,10.578,0,18.32a35.69,35.69,0,0,0,5.22,13.724,83.685,83.685,0,0,1-13.068-3.965C280.16,436.827,273.7,434.4,273.7,434.4a55.057,55.057,0,0,1-3.9-12.349c-1.32-7,.5-17.215,0-17.094S293.139,411.009,293.139,411.009Z" transform="translate(-109.182 1747.482)"/>
    <path id="Path_75" data-name="Path 75" class="cls-7" d="M369.931,212.58c-29.32.123-52.44,17.923-52.44,17.923s-21.332,19.913-25.169,24.257,10.512,0,10.512,0-3.291,8.823-13.186,17.057-17.294,32.573-17.294,32.573,5.6-5.971,8.071-5.724-5.078,10.411-8.071,17.5S267,336.6,268.581,334.98" transform="translate(-314.799 1712.237)"/>
    <path id="Path_76" data-name="Path 76" class="cls-2" d="M363.558,458.574s-8.252-5.114-12.7-10.791-6.711-15.758-6.7-23.837,1.082-17.471,4.918-26.04,11.364-11.7,16.344-9.174,5.436,16.184,4.435,25.895-2.93,15.761-6.295,18.671-5.719.772-7.708-3.655-.034-17.98,2.668-23.579" transform="translate(-96.012 1744.428)"/>
    <g id="Group_3" data-name="Group 3" transform="translate(120.996 2110.212)">
      <path id="Path_33" data-name="Path 33" class="cls-2" d="M252.059,393.636c1.319-4.422,5.2-4.24,4.654-2.206C256.193,394.807,251.677,394.489,252.059,393.636Z" transform="translate(-236.747 -363.003)"/>
      <path id="Path_34" data-name="Path 34" class="cls-2" d="M252.059,393.636c1.319-4.422,5.2-4.24,4.654-2.206C256.193,394.807,251.677,394.489,252.059,393.636Z" transform="translate(-229.691 -377.115)"/>
      <path id="Path_35" data-name="Path 35" class="cls-2" d="M252.059,393.636c1.319-4.422,5.2-4.24,4.654-2.206C256.193,394.807,251.677,394.489,252.059,393.636Z" transform="translate(-215.578 -377.115)"/>
      <path id="Path_36" data-name="Path 36" class="cls-2" d="M252.059,393.636c1.319-4.422,5.2-4.24,4.654-2.206C256.193,394.807,251.677,394.489,252.059,393.636Z" transform="translate(-220.282 -365.355)"/>
      <path id="Path_37" data-name="Path 37" class="cls-2" d="M252.059,393.636c1.319-4.422,5.2-4.24,4.654-2.206C256.193,394.807,251.677,394.489,252.059,393.636Z" transform="translate(-226.163 -388.876)"/>
      <path id="Path_38" data-name="Path 38" class="cls-2" d="M252.059,393.636c1.319-4.422,5.2-4.24,4.654-2.206C256.193,394.807,251.677,394.489,252.059,393.636Z" transform="translate(-212.05 -390.052)"/>
      <path id="Path_39" data-name="Path 39" class="cls-2" d="M252.059,393.636c1.319-4.422,5.2-4.24,4.654-2.206C256.193,394.807,251.677,394.489,252.059,393.636Z" transform="translate(-243.803 -375.939)"/>
      <path id="Path_40" data-name="Path 40" class="cls-2" d="M252.059,393.636c1.319-4.422,5.2-4.24,4.654-2.206C256.193,394.807,251.677,394.489,252.059,393.636Z" transform="translate(-252.036 -363.003)"/>
    </g>
    <g id="Group_4" data-name="Group 4" transform="translate(44.528 2110.212)">
      <path id="Path_33-2" data-name="Path 33" class="cls-2" d="M256.742,393.636c-1.319-4.422-5.2-4.24-4.654-2.206C252.607,394.807,257.124,394.489,256.742,393.636Z" transform="translate(-227.339 -363.003)"/>
      <path id="Path_34-2" data-name="Path 34" class="cls-2" d="M256.742,393.636c-1.319-4.422-5.2-4.24-4.654-2.206C252.607,394.807,257.124,394.489,256.742,393.636Z" transform="translate(-234.395 -377.115)"/>
      <path id="Path_35-2" data-name="Path 35" class="cls-2" d="M256.742,393.636c-1.319-4.422-5.2-4.24-4.654-2.206C252.607,394.807,257.124,394.489,256.742,393.636Z" transform="translate(-248.508 -377.115)"/>
      <path id="Path_36-2" data-name="Path 36" class="cls-2" d="M256.742,393.636c-1.319-4.422-5.2-4.24-4.654-2.206C252.607,394.807,257.124,394.489,256.742,393.636Z" transform="translate(-243.803 -365.355)"/>
      <path id="Path_37-2" data-name="Path 37" class="cls-2" d="M256.742,393.636c-1.319-4.422-5.2-4.24-4.654-2.206C252.607,394.807,257.124,394.489,256.742,393.636Z" transform="translate(-237.923 -388.876)"/>
      <path id="Path_38-2" data-name="Path 38" class="cls-2" d="M256.742,393.636c-1.319-4.422-5.2-4.24-4.654-2.206C252.607,394.807,257.124,394.489,256.742,393.636Z" transform="translate(-252.036 -390.052)"/>
      <path id="Path_39-2" data-name="Path 39" class="cls-2" d="M256.742,393.636c-1.319-4.422-5.2-4.24-4.654-2.206C252.607,394.807,257.124,394.489,256.742,393.636Z" transform="translate(-220.282 -375.939)"/>
      <path id="Path_40-2" data-name="Path 40" class="cls-2" d="M256.742,393.636c-1.319-4.422-5.2-4.24-4.654-2.206C252.607,394.807,257.124,394.489,256.742,393.636Z" transform="translate(-212.05 -363.003)"/>
    </g>
    <path id="Path_77" data-name="Path 77" class="cls-2" d="M116.081,373.316a42.411,42.411,0,0,1,10.777,10.529,68.346,68.346,0,0,1,10.181,28.822c1.165,11.231-.49,22.432-2.646,31s-9.613,16.486-9.613,16.486-6.6,3.278-11.988,3.667-13.8.5-13.8.5,12.615-11.955,15.489-23.1,4.206-17.822,2.6-28.554-3.809-16.3-7.635-23.621S97.063,376.8,95.326,376.6,116.081,373.316,116.081,373.316Z" transform="translate(-133.786 1740.634)"/>
    <path id="Path_80" data-name="Path 80" class="cls-2" d="M324.022,458.07s4.976-4.585,8.06-15.892,1.279-25.738,0-33.912S326.4,387.2,326.4,387.2" transform="translate(-317.472 1739.545)"/>
    <path id="Path_81" data-name="Path 81" class="cls-2" d="M324.022,456.543s4.691-4.486,7.6-15.55,1.206-25.183,0-33.181-5.359-20.617-5.359-20.617" transform="translate(-308.682 1738.369)"/>
    <path id="Path_82" data-name="Path 82" class="cls-2" d="M324.022,453.922s4.183-4.317,6.776-14.962,1.075-24.232,0-31.927S326.02,387.2,326.02,387.2" transform="translate(-299.478 1738.369)"/>
    <path id="Path_83" data-name="Path 83" class="cls-2" d="M324.022,451.4s4.2-4.2,6.8-14.568,1.079-23.594,0-31.087a84.362,84.362,0,0,0-3.432-14.172" transform="translate(-291.272 1739.139)"/>
    <path id="Path_84" data-name="Path 84" class="cls-2" d="M324.022,440.6s3.877-3.6,6.28-12.468,2.172-22.02,1.176-28.433" transform="translate(-282.739 1747.583)"/>
    <path id="Path_86" data-name="Path 86" class="cls-8" d="M229.59,219.253c11.9,0,38.78-6.761,38.78-6.761S287.211,187.345,299.039,181s37.847-.591,52.716,6.236,35.129,22.627,45.375,42.924,17.067,36.312,22.661,43.514,0,35.808,0,35.808-10.052-14.781-14.873-12.243,1.79,8.873,2.373,22.435-6.833,15.757-6.833,15.757-1.428-13.056-9.256-10.157-11.1,7.417-7.564,24.2c1.286,8.611,3.965,19.384,3.965,19.384s-6.039-7.738-8.944,0c-1.547,3.908,2.427,12.777,4.98,21.562.462,8.862.324,11.174,0,13.231s10.97,4.7,16.821,12.043,7.516,13.915,6.833,26.539-2.527,27.286-6.833,36.848-7.6,17.613-16.821,20.22-13.906,4.091-28.232,2.5-30.474-7.4-41.04-10.307-33.566-9.553-33.566-9.553" transform="translate(-123.231 1708.747)"/>
    <path id="Path_87" data-name="Path 87" class="cls-8" d="M384.656,219.272c-11.9,0-38.364-6.78-38.364-6.78S327.451,187.345,315.623,181s-37.847-.591-52.716,6.236-35.129,22.627-45.375,42.924-17.067,36.312-22.661,43.514,0,35.807,0,35.807,10.052-14.781,14.873-12.243-1.79,8.873-2.373,22.435,6.833,15.757,6.833,15.757,1.428-13.056,9.256-10.157,11.1,7.417,7.564,24.2c-1.286,8.611-3.965,19.384-3.965,19.384s6.039-7.739,8.944,0c1.547,3.908-2.427,12.777-4.98,21.562-.462,8.862-.324,11.174,0,13.231s-10.97,4.7-16.821,12.043-7.516,13.915-6.833,26.539,2.527,27.286,6.833,36.848,7.6,17.613,16.821,20.22,13.906,4.091,28.232,2.5,30.474-7.4,41.04-10.307,33.566-9.553,33.566-9.553" transform="translate(-278.233 1708.747)"/>
    <path id="Path_88" data-name="Path 88" class="cls-3" d="M39.184,79.4a24.394,24.394,0,0,1-10.45,4.385c-5.959.854-8.476-.268-14.208-3.955S3.18,66.328.9,50.6.945,26.52,4.638,18.778,15.52,4.514,21.175,0" transform="matrix(-1, -0.017, 0.017, -1, -26.758, 2206.754)"/>
    <path id="Path_89" data-name="Path 89" class="cls-2" d="M350.882,458.574s8.252-5.114,12.7-10.791,6.711-15.758,6.7-23.837-1.082-17.471-4.918-26.04S354,386.2,349.022,388.731s-5.436,16.184-4.435,25.895,2.93,15.761,6.295,18.671,5.719.772,7.708-3.655.034-17.98-2.668-23.579" transform="translate(-406.011 1744.428)"/>
    <g id="Group_11" data-name="Group 11" transform="translate(1344 1866) rotate(90)">
      <path id="Exclusion_4" data-name="Exclusion 4" class="cls-9" d="M15,30A15,15,0,0,1,4.393,4.393,15,15,0,1,1,25.606,25.606,14.9,14.9,0,0,1,15,30Zm.5-22A7.5,7.5,0,1,0,23,15.5,7.508,7.508,0,0,0,15.5,8Z" transform="translate(137 1167)"/>
      <circle id="Ellipse_15" data-name="Ellipse 15" class="cls-9" cx="5.5" cy="5.5" r="5.5" transform="translate(147 1177)"/>
    </g>
  </g>
</svg>
