<svg xmlns="http://www.w3.org/2000/svg" viewBox="0 0 389.888 329.209">
  <defs>
    <style>
      .cls-1 {
        fill: #f1f1f1;
      }

      .cls-10, .cls-12, .cls-2, .cls-3, .cls-4, .cls-6, .cls-7, .cls-9 {
        fill: none;
      }

      .cls-10, .cls-2, .cls-3, .cls-4, .cls-5, .cls-6, .cls-7 {
        stroke: #fff;
      }

      .cls-2, .cls-6 {
        stroke-linecap: round;
      }

      .cls-2, .cls-4, .cls-5 {
        stroke-width: 3px;
      }

      .cls-3 {
        stroke-width: 4px;
      }

      .cls-5 {
        fill: #223343;
      }

      .cls-10, .cls-6 {
        stroke-width: 5px;
      }

      .cls-7, .cls-9 {
        stroke-width: 2px;
      }

      .cls-8 {
        fill: #fff;
      }

      .cls-9 {
        stroke: #223343;
      }

      .cls-11 {
        stroke: none;
      }
    </style>
  </defs>
  <g id="Group_7" data-name="Group 7" transform="translate(-57.658 -909.723)">
    <path id="Path_50" data-name="Path 50" class="cls-1" d="M488.155,227.625a39.422,39.422,0,0,0-5.119-18.514c-5.4-9.73,2.239-12.719,7.951-20.363s14.649-6.057,14.649-6.057l15.63,6.057,16.88,9.658,15.18,14.12,9.234,12.652,8.317,15.67,8.228,17.609,6.888,12.488,4.259,6.306,1.137,9.034-3.418,22.787-10.17-10.6h-4.83l-.955,3.59,3.339,14.675v9.054l-3.339,7.9-2.532,2.321-3.847-9.158-5.806-1.067-6.5,4.025-2.544,6.2-1.807-10.224-3.079-6.5-5.559-10.22-1.725-3.584,1.725-1.18,5.559,4.764v-2.051l-7.284-18.5-5.086-7.661-10.953-10.9-5.889-9.4,9.589,1.977,1.507-1.977-18.862-17.886-10.658-9.63Z" transform="translate(-145.797 733.581)"/>
    <path id="Path_51" data-name="Path 51" class="cls-1" d="M230.52,350.9s1.449-12.8,0-19.5-7.578-15.09-9.343-23.741,6.918-20.219,6.79-35.282,2.736-29.3-20-39.379-31.512-4.09-48.475,3.72-35.108,40.342-37.1,55.969.471,20.041,7.881,31.147,15.865,19.182,26.923,16.991,22.5-1.454,28.253,10.075,19.556,17.16,18.387,17.131l4.132-8.568,10.878-5.589Z" transform="translate(10.84 741.527)"/>
    <path id="Path_52" data-name="Path 52" class="cls-2" d="M223.281,419.8s11.5,6.967,22.563,6.717,28.96,1.326,40.836-16.564,21.18-36.559,33.7-38.443" transform="translate(27.542 755.288)"/>
    <path id="Path_53" data-name="Path 53" class="cls-2" d="M320.935,419.8s-11.563,6.967-22.691,6.717-29.124,1.326-41.067-16.564-21.3-36.559-33.9-38.443" transform="translate(-69.445 755.288)"/>
    <path id="Path_54" data-name="Path 54" class="cls-3" d="M222.848,384.764c15.3-.319,25.386-6.909,30.375-17.1s8.522-22.841,0-28.115-20.328-7.337-30.375-7.07" transform="translate(27.466 759.972)"/>
    <path id="Path_55" data-name="Path 55" class="cls-3" d="M258.185,384.764c-15.221-.319-25.252-6.909-30.214-17.1s-8.477-22.841,0-28.115,20.22-7.337,30.214-7.07" transform="translate(-7.627 759.972)"/>
    <path id="Path_56" data-name="Path 56" class="cls-4" d="M256.906,301.333c-2.241-4.029,1.841-17.039,18.982-20.382,11.073-2.159,18.685.856,23.351,5.661a15.653,15.653,0,0,1,4.074,7.876c1.435,7.823-10.86,17.462-21.921,19.237S259.147,305.362,256.906,301.333Z" transform="translate(29.496 743.127)"/>
    <path id="Path_57" data-name="Path 57" class="cls-5" d="M302.14,301.333c2.206-4.029-1.813-17.039-18.686-20.382-10.9-2.159-18.394.856-22.987,5.661a15.74,15.74,0,0,0-4.011,7.876c-1.413,7.823,10.69,17.462,21.579,19.237S299.934,305.362,302.14,301.333Z" transform="translate(-87.473 743.127)"/>
    <path id="Path_58" data-name="Path 58" class="cls-2" d="M309.107,366.712s45.865,1.59,67.42,6.968,26.016,21.355,24.637,40.065S393.678,466.6,372,468.319c-25.46,1.653-28.716-1.4-49.3-6.323-20.366-5.558-37.329-11.346-50.005-15.95-8.537-4.216-13.566-9.195-25.7-9.793s-23.036,0-23.036,0" transform="translate(27.66 766.002)"/>
    <path id="Path_59" data-name="Path 59" class="cls-2" d="M312.82,365.964s-42.449,2.471-64,7.849-26.016,21.355-24.637,40.065,7.485,52.851,29.164,54.574c25.46,1.653,28.715-1.4,49.3-6.323,20.366-5.558,37.329-11.346,50.005-15.95,8.537-4.216,13.566-9.195,25.7-9.793s23.036,0,23.036,0" transform="translate(-149.78 765.87)"/>
    <path id="Path_60" data-name="Path 60" class="cls-6" d="M280.158,437.945s-14.415,15.206-29.816,17.643-15.778,3.675-24.194,3.262" transform="translate(24.519 776.843)"/>
    <path id="Path_61" data-name="Path 61" class="cls-6" d="M226.148,437.945s13.728,14.481,28.395,16.8,15.026,3.5,23.041,3.106" transform="translate(-26.989 777.843)"/>
    <path id="Path_63" data-name="Path 63" class="cls-2" d="M246.6,349.625c-10.551,1.671-15.495,6.311-16.807,11.407" transform="translate(26.178 762.994)"/>
    <path id="Path_64" data-name="Path 64" class="cls-2" d="M229.789,349.625c10.551,1.671,15.495,6.311,16.807,11.407" transform="translate(-2.39 762.994)"/>
    <circle id="Ellipse_5" data-name="Ellipse 5" class="cls-1" cx="14.701" cy="14.701" r="14.701" transform="translate(292.831 1028.384)"/>
    <g id="Ellipse_6" data-name="Ellipse 6" class="cls-7" transform="translate(178.754 1028.384)">
      <circle class="cls-11" cx="14.701" cy="14.701" r="14.701"/>
      <circle class="cls-12" cx="14.701" cy="14.701" r="13.701"/>
    </g>
    <path id="Path_65" data-name="Path 65" class="cls-2" d="M39.431,3.36a27.872,27.872,0,0,0-7.646-3C27.369-.577,20.732.316,15.234,2.938,8.278,6.863,3.925,15.856,1.151,32.156S1.013,54.834,4.885,63.979,21.422,82.756,21.422,82.756" transform="matrix(1, -0.017, 0.017, 1, 383.487, 1149.268)"/>
    <path id="Path_66" data-name="Path 66" class="cls-7" d="M268.073,212.58c29.471.124,52.71,18.015,52.71,18.015s21.442,20.016,25.3,24.382-10.566,0-10.566,0,3.308,8.869,13.254,17.145,17.384,32.741,17.384,32.741-5.628-6-8.113-5.754,5.1,10.465,8.113,17.59,5.384,20.542,3.792,18.911" transform="translate(35.428 738.867)"/>
    <path id="Path_67" data-name="Path 67" class="cls-7" d="M335.26,460.726s-5.729-4.757-9.28-16.488-1.472-26.7,0-35.183,6.544-21.86,6.544-21.86" transform="translate(46.454 769.608)"/>
    <path id="Path_68" data-name="Path 68" class="cls-7" d="M335.149,460s-5.672-4.71-9.188-16.324-1.458-26.438,0-34.834,6.479-21.644,6.479-21.644" transform="translate(38.222 768.327)"/>
    <path id="Path_69" data-name="Path 69" class="cls-7" d="M334.558,459.517s-5.37-4.679-8.7-16.216-1.38-26.263,0-34.6,6.135-21.5,6.135-21.5" transform="translate(29.989 767.151)"/>
    <path id="Path_70" data-name="Path 70" class="cls-7" d="M333.784,458.07s-4.976-4.585-8.06-15.892-1.279-25.738,0-33.912,5.684-21.071,5.684-21.071" transform="translate(21.757 765.974)"/>
    <path id="Path_71" data-name="Path 71" class="cls-7" d="M333.225,456.543s-4.691-4.486-7.6-15.55-1.206-25.183,0-33.181,5.359-20.617,5.359-20.617" transform="translate(13.525 764.798)"/>
    <path id="Path_72" data-name="Path 72" class="cls-7" d="M293.139,411.009s-1.095,10.578,0,18.32a35.69,35.69,0,0,0,5.22,13.724,83.685,83.685,0,0,1-13.068-3.965C280.16,436.827,273.7,434.4,273.7,434.4a55.057,55.057,0,0,1-3.9-12.349c-1.32-7,.5-17.215,0-17.094S293.139,411.009,293.139,411.009Z" transform="translate(36.821 772.735)"/>
    <path id="Path_73" data-name="Path 73" class="cls-1" d="M108.048,380a35.175,35.175,0,0,0,10.693-8.3c5.347-5.949,7.722-13.477,9.162-21.144s-7.863-9.217-9.162-19.913-.919-15.581-10.693-14.283S94.381,330.64,94.381,330.64L92.21,345.374l2.171-2.589,3.006,4.3v5.739L92.21,368.289v14.638Z" transform="translate(3.291 755.925)"/>
    <path id="Path_75" data-name="Path 75" class="cls-7" d="M369.931,212.58c-29.32.123-52.44,17.923-52.44,17.923s-21.332,19.913-25.169,24.257,10.512,0,10.512,0-3.291,8.823-13.186,17.057-17.294,32.573-17.294,32.573,5.6-5.971,8.071-5.724-5.078,10.411-8.071,17.5S267,336.6,268.581,334.98" transform="translate(-169.796 737.49)"/>
    <path id="Path_76" data-name="Path 76" class="cls-7" d="M363.558,458.574s-8.252-5.114-12.7-10.791-7.1-12.15-6.7-23.837,3.4-25.422,6.7-30.656,9.578-7.086,14.559-4.558,5.841,16.516,4.435,25.895-1.76,15.088-6.295,20.151-5.739,2.916-8.978,0,1.235-23.114,3.937-28.713" transform="translate(49.991 769.682)"/>
    <g id="Group_3" data-name="Group 3" transform="translate(267 1135.466)">
      <path id="Path_33" data-name="Path 33" class="cls-7" d="M252.059,393.636c1.319-4.422,5.2-4.24,4.654-2.206C256.193,394.807,251.677,394.489,252.059,393.636Z" transform="translate(-236.747 -363.003)"/>
      <path id="Path_34" data-name="Path 34" class="cls-7" d="M252.059,393.636c1.319-4.422,5.2-4.24,4.654-2.206C256.193,394.807,251.677,394.489,252.059,393.636Z" transform="translate(-229.691 -377.115)"/>
      <path id="Path_35" data-name="Path 35" class="cls-7" d="M252.059,393.636c1.319-4.422,5.2-4.24,4.654-2.206C256.193,394.807,251.677,394.489,252.059,393.636Z" transform="translate(-215.578 -377.115)"/>
      <path id="Path_36" data-name="Path 36" class="cls-7" d="M252.059,393.636c1.319-4.422,5.2-4.24,4.654-2.206C256.193,394.807,251.677,394.489,252.059,393.636Z" transform="translate(-220.282 -365.355)"/>
      <path id="Path_37" data-name="Path 37" class="cls-7" d="M252.059,393.636c1.319-4.422,5.2-4.24,4.654-2.206C256.193,394.807,251.677,394.489,252.059,393.636Z" transform="translate(-226.163 -388.876)"/>
      <path id="Path_38" data-name="Path 38" class="cls-7" d="M252.059,393.636c1.319-4.422,5.2-4.24,4.654-2.206C256.193,394.807,251.677,394.489,252.059,393.636Z" transform="translate(-212.05 -390.052)"/>
      <path id="Path_39" data-name="Path 39" class="cls-7" d="M252.059,393.636c1.319-4.422,5.2-4.24,4.654-2.206C256.193,394.807,251.677,394.489,252.059,393.636Z" transform="translate(-243.803 -375.939)"/>
      <path id="Path_40" data-name="Path 40" class="cls-7" d="M252.059,393.636c1.319-4.422,5.2-4.24,4.654-2.206C256.193,394.807,251.677,394.489,252.059,393.636Z" transform="translate(-252.036 -363.003)"/>
    </g>
    <circle id="Ellipse_7" data-name="Ellipse 7" class="cls-8" cx="5.88" cy="5.88" r="5.88" transform="translate(188.162 1037.793)"/>
    <g id="Ellipse_8" data-name="Ellipse 8" class="cls-9" transform="translate(298.711 1035.441)">
      <circle class="cls-11" cx="8.232" cy="8.232" r="8.232"/>
      <circle class="cls-12" cx="8.232" cy="8.232" r="7.232"/>
    </g>
    <g id="Group_4" data-name="Group 4" transform="translate(190.531 1135.466)">
      <path id="Path_33-2" data-name="Path 33" class="cls-7" d="M256.742,393.636c-1.319-4.422-5.2-4.24-4.654-2.206C252.607,394.807,257.124,394.489,256.742,393.636Z" transform="translate(-227.339 -363.003)"/>
      <path id="Path_34-2" data-name="Path 34" class="cls-7" d="M256.742,393.636c-1.319-4.422-5.2-4.24-4.654-2.206C252.607,394.807,257.124,394.489,256.742,393.636Z" transform="translate(-234.395 -377.115)"/>
      <path id="Path_35-2" data-name="Path 35" class="cls-7" d="M256.742,393.636c-1.319-4.422-5.2-4.24-4.654-2.206C252.607,394.807,257.124,394.489,256.742,393.636Z" transform="translate(-248.508 -377.115)"/>
      <path id="Path_36-2" data-name="Path 36" class="cls-7" d="M256.742,393.636c-1.319-4.422-5.2-4.24-4.654-2.206C252.607,394.807,257.124,394.489,256.742,393.636Z" transform="translate(-243.803 -365.355)"/>
      <path id="Path_37-2" data-name="Path 37" class="cls-7" d="M256.742,393.636c-1.319-4.422-5.2-4.24-4.654-2.206C252.607,394.807,257.124,394.489,256.742,393.636Z" transform="translate(-237.923 -388.876)"/>
      <path id="Path_38-2" data-name="Path 38" class="cls-7" d="M256.742,393.636c-1.319-4.422-5.2-4.24-4.654-2.206C252.607,394.807,257.124,394.489,256.742,393.636Z" transform="translate(-252.036 -390.052)"/>
      <path id="Path_39-2" data-name="Path 39" class="cls-7" d="M256.742,393.636c-1.319-4.422-5.2-4.24-4.654-2.206C252.607,394.807,257.124,394.489,256.742,393.636Z" transform="translate(-220.282 -375.939)"/>
      <path id="Path_40-2" data-name="Path 40" class="cls-7" d="M256.742,393.636c-1.319-4.422-5.2-4.24-4.654-2.206C252.607,394.807,257.124,394.489,256.742,393.636Z" transform="translate(-212.05 -363.003)"/>
    </g>
    <path id="Path_77" data-name="Path 77" class="cls-7" d="M117.257,372.74s6.667,1.874,10.614,10.7,5.994,14.982,7.159,26.213,2.156,21.368,0,29.937S124.451,462.1,124.451,462.1a37.47,37.47,0,0,1-9.97,2.216c-5.389.389-14.489,0-14.489,0s12.051-11.12,14.489-23.1,2.752-17.656,1.6-28.554-3.553-17.148-7.116-24.745-10.98-11.574-12.716-11.77S117.257,372.74,117.257,372.74Z" transform="translate(12.218 765.887)"/>
    <path id="Path_78" data-name="Path 78" class="cls-2" d="M40.737,82.024a28.794,28.794,0,0,1-7.9,3.1c-4.563.973-11.42.05-17.1-2.659C8.552,78.405,4.055,69.115,1.189,52.275S1.047,28.846,5.047,19.4,22.131,0,22.131,0" transform="matrix(-1, -0.017, 0.017, -1, 120.912, 1232.422)"/>
    <path id="Path_79" data-name="Path 79" class="cls-7" d="M351.246,460.923s8.525-5.284,13.119-11.148,7.339-12.552,6.926-24.627-3.514-26.264-6.926-31.671-9.9-7.321-15.041-4.709-6.034,17.063-4.582,26.752,1.818,15.588,6.5,20.818,5.929,3.012,9.275,0-1.276-23.879-4.067-29.664" transform="translate(-259.899 767.618)"/>
    <path id="Path_80" data-name="Path 80" class="cls-7" d="M324.022,458.07s4.976-4.585,8.06-15.892,1.279-25.738,0-33.912S326.4,387.2,326.4,387.2" transform="translate(-171.468 764.798)"/>
    <path id="Path_81" data-name="Path 81" class="cls-7" d="M324.022,456.543s4.691-4.486,7.6-15.55,1.206-25.183,0-33.181-5.359-20.617-5.359-20.617" transform="translate(-162.678 763.622)"/>
    <path id="Path_82" data-name="Path 82" class="cls-7" d="M324.022,453.922s4.183-4.317,6.776-14.962,1.075-24.232,0-31.927S326.02,387.2,326.02,387.2" transform="translate(-153.475 763.622)"/>
    <path id="Path_83" data-name="Path 83" class="cls-7" d="M324.022,451.4s4.2-4.2,6.8-14.568,1.079-23.594,0-31.087a84.362,84.362,0,0,0-3.432-14.172" transform="translate(-145.268 764.392)"/>
    <path id="Path_84" data-name="Path 84" class="cls-7" d="M324.022,440.6s3.877-3.6,6.28-12.468,2.172-22.02,1.176-28.433" transform="translate(-136.735 772.837)"/>
    <path id="Path_85" data-name="Path 85" class="cls-1" d="M341.154,379.859s2.372-2.923,5.271-6.34,5.447-12.91,4.115-23.386-14.243-25.075-22.484-32.574-15.289-9.023-29.755-6.614-16.75,12.013-18.145,22.731,8.393,15.137,15.947,20.106,6.458,15.306,6.435,17.765-4.237,4.392-4.237,4.392Z" transform="translate(38.708 755.999)"/>
    <path id="Path_86" data-name="Path 86" class="cls-10" d="M229.59,219.253c11.9,0,38.78-6.761,38.78-6.761S287.211,187.345,299.039,181s37.847-.591,52.716,6.236,35.129,22.627,45.375,42.924,17.067,36.312,22.661,43.514,0,35.808,0,35.808-10.052-14.781-14.873-12.243,1.79,8.873,2.373,22.435-6.833,15.757-6.833,15.757-1.428-13.056-9.256-10.157-11.1,7.417-7.564,24.2c1.286,8.611,3.965,19.384,3.965,19.384s-6.039-7.738-8.944,0c-1.547,3.908,2.427,12.777,4.98,21.562.462,8.862.324,11.174,0,13.231s10.97,4.7,16.821,12.043,7.516,13.915,6.833,26.539-2.527,27.286-6.833,36.848-7.6,17.613-16.821,20.22-13.906,4.091-28.232,2.5-30.474-7.4-41.04-10.307-33.566-9.553-33.566-9.553" transform="translate(22.773 734)"/>
    <path id="Path_87" data-name="Path 87" class="cls-10" d="M384.656,219.272c-11.9,0-38.364-6.78-38.364-6.78S327.451,187.345,315.623,181s-37.847-.591-52.716,6.236-35.129,22.627-45.375,42.924-17.067,36.312-22.661,43.514,0,35.807,0,35.807,10.052-14.781,14.873-12.243-1.79,8.873-2.373,22.435,6.833,15.757,6.833,15.757,1.428-13.056,9.256-10.157,11.1,7.417,7.564,24.2c-1.286,8.611-3.965,19.384-3.965,19.384s6.039-7.739,8.944,0c1.547,3.908-2.427,12.777-4.98,21.562-.462,8.862-.324,11.174,0,13.231s-10.97,4.7-16.821,12.043-7.516,13.915-6.833,26.539,2.527,27.286,6.833,36.848,7.6,17.613,16.821,20.22,13.906,4.091,28.232,2.5,30.474-7.4,41.04-10.307,33.566-9.553,33.566-9.553" transform="translate(-132.23 734)"/>
  </g>
</svg>
