<svg xmlns="http://www.w3.org/2000/svg" viewBox="0 0 332.268 280.675">
  <defs>
    <style>
      .cls-1 {
        fill: #198382;
      }

      .cls-11, .cls-2, .cls-3, .cls-4, .cls-6, .cls-7, .cls-8, .cls-9 {
        fill: none;
      }

      .cls-2, .cls-3, .cls-4, .cls-5, .cls-6, .cls-7, .cls-8 {
        stroke: #198382;
      }

      .cls-2, .cls-6 {
        stroke-linecap: round;
      }

      .cls-2, .cls-4, .cls-5 {
        stroke-width: 3px;
      }

      .cls-3 {
        stroke-width: 4px;
      }

      .cls-5 {
        fill: #fff;
      }

      .cls-6, .cls-7 {
        stroke-width: 5px;
      }

      .cls-8, .cls-9 {
        stroke-width: 2px;
      }

      .cls-9 {
        stroke: #fff;
      }

      .cls-10 {
        stroke: none;
      }
    </style>
  </defs>
  <g id="Group_6" data-name="Group 6" transform="translate(-57.66 -586.728)">
    <path id="Path_50" data-name="Path 50" class="cls-1" d="M487.113,220.878a33.52,33.52,0,0,0-4.353-15.742c-4.59-8.273,1.9-10.815,6.76-17.315a13.428,13.428,0,0,1,12.456-5.15l13.29,5.15,14.353,8.212,12.908,12.007,7.852,10.758,7.072,13.324,7,14.973,5.857,10.618,3.621,5.362.967,7.681-2.906,19.376-8.648-9.011H559.23l-.812,3.052,2.839,12.478v7.7l-2.839,6.72-2.153,1.973-3.271-7.787-4.937-.907-5.53,3.423-2.163,5.271-1.537-8.694-2.618-5.528-4.727-8.69-1.467-3.048,1.467-1,4.727,4.051v-1.744l-6.193-15.733-4.324-6.515-9.314-9.269-5.008-7.99,8.153,1.681,1.282-1.681-16.038-15.209-9.062-8.188Z" transform="translate(-187 410)"/>
    <path id="Path_51" data-name="Path 51" class="cls-1" d="M214.234,332.457s1.232-10.887,0-16.58-6.444-12.831-7.944-20.187,5.883-17.193,5.773-30,2.327-24.914-17.005-33.484-26.795-3.478-41.219,3.163-29.853,34.3-31.547,47.59.4,17.041,6.7,26.484,13.49,16.311,22.893,14.447,19.129-1.236,24.023,8.567,16.629,14.592,15.635,14.566l3.514-7.285,9.25-4.752Z" transform="translate(0 410)"/>
    <path id="Path_52" data-name="Path 52" class="cls-2" d="M223.281,412.568s9.776,5.924,19.185,5.712,24.625,1.128,34.723-14.084,18.009-31.086,28.658-32.688" transform="translate(-1 400.172)"/>
    <path id="Path_53" data-name="Path 53" class="cls-2" d="M306.316,412.568s-9.832,5.924-19.294,5.712-24.764,1.128-34.92-14.084-18.111-31.086-28.821-32.688" transform="translate(-83.469 400.172)"/>
    <path id="Path_54" data-name="Path 54" class="cls-3" d="M222.848,376.934c13.012-.271,21.586-5.875,25.828-14.539s7.246-19.422,0-23.906-17.285-6.238-25.828-6.012" transform="translate(-1 410)"/>
    <path id="Path_55" data-name="Path 55" class="cls-3" d="M252.9,376.934c-12.943-.271-21.471-5.875-25.691-14.539s-7.208-19.422,0-23.906,17.193-6.238,25.691-6.012" transform="translate(-30.84 410)"/>
    <path id="Path_56" data-name="Path 56" class="cls-4" d="M256.822,298.176c-1.905-3.426,1.566-14.488,16.14-17.331,9.415-1.836,15.888.728,19.855,4.814a13.31,13.31,0,0,1,3.464,6.7c1.221,6.652-9.234,14.848-18.639,16.358S258.727,301.6,256.822,298.176Z" transform="translate(-4.288 403.493)"/>
    <path id="Path_57" data-name="Path 57" class="cls-5" d="M295.284,298.176c1.876-3.426-1.541-14.488-15.888-17.331-9.268-1.836-15.64.728-19.546,4.814a13.384,13.384,0,0,0-3.41,6.7c-1.2,6.652,9.09,14.848,18.349,16.358S293.409,301.6,295.284,298.176Z" transform="translate(-103.747 403.493)"/>
    <path id="Path_58" data-name="Path 58" class="cls-2" d="M296.359,366.712s39,1.352,57.328,5.925S375.808,390.8,374.635,406.7s-6.365,44.939-24.8,46.4c-21.649,1.406-24.417-1.193-41.922-5.376-17.318-4.726-31.741-9.647-42.52-13.562-7.259-3.585-11.535-7.818-21.857-8.327s-19.588,0-19.588,0" transform="translate(-1 410)"/>
    <path id="Path_59" data-name="Path 59" class="cls-2" d="M302.422,366.712s-39,1.352-57.328,5.925S222.973,390.8,224.145,406.7s6.365,44.939,24.8,46.4c21.649,1.406,24.417-1.193,41.922-5.376,17.318-4.726,31.741-9.647,42.52-13.562,7.259-3.585,11.535-7.818,21.857-8.327s19.588,0,19.588,0" transform="translate(-151.879 410)"/>
    <path id="Path_60" data-name="Path 60" class="cls-6" d="M272.073,437.945s-12.257,12.93-25.352,15-13.416,3.125-20.572,2.773" transform="translate(-4 408.555)"/>
    <path id="Path_61" data-name="Path 61" class="cls-6" d="M226.148,437.945s11.673,12.314,24.144,14.287,12.777,2.976,19.592,2.641" transform="translate(-47.798 409.405)"/>
    <path id="Path_62" data-name="Path 62" class="cls-7" d="M226.988,213.146c10.12,0,35.576-5.78,35.576-5.78s16.021-21.382,26.078-26.78,32.181-.5,44.824,5.3,29.87,19.24,38.583,36.5,14.512,30.876,19.269,37,0,30.447,0,30.447-8.547-12.568-12.646-10.41,1.522,7.545,2.018,19.076-5.811,13.4-5.811,13.4-1.214-11.1-7.871-8.637-9.442,6.307-6.432,20.574c1.094,7.322,3.371,16.482,3.371,16.482s-5.135-6.58-7.605,0c-1.316,3.323,2.064,10.864,4.234,18.334.393,7.535.275,9.5,0,11.25s9.328,4,14.3,10.24,6.391,11.832,5.811,22.566-2.148,23.2-5.811,31.332-6.463,14.977-14.3,17.193-11.824,3.479-24.006,2.125-25.912-6.291-34.9-8.764-28.541-8.123-28.541-8.123" transform="translate(-6 411)"/>
    <path id="Path_63" data-name="Path 63" class="cls-2" d="M244.08,349.625c-8.972,1.421-13.175,5.366-14.291,9.7" transform="translate(-3.135 410)"/>
    <path id="Path_64" data-name="Path 64" class="cls-2" d="M229.789,349.625c8.972,1.421,13.175,5.366,14.291,9.7" transform="translate(-27.426 410)"/>
    <circle id="Ellipse_5" data-name="Ellipse 5" class="cls-1" cx="12.5" cy="12.5" r="12.5" transform="translate(258 687)"/>
    <g id="Ellipse_6" data-name="Ellipse 6" class="cls-8" transform="translate(161 687)">
      <circle class="cls-10" cx="12.5" cy="12.5" r="12.5"/>
      <circle class="cls-11" cx="12.5" cy="12.5" r="11.5"/>
    </g>
    <path id="Path_65" data-name="Path 65" class="cls-2" d="M369.219,383.37a23.7,23.7,0,0,0-6.5-2.547c-3.756-.8-9.4-.041-14.074,2.188-5.915,3.338-9.616,10.984-11.975,24.845s-.117,19.283,3.176,27.059,14.061,15.967,14.061,15.967" transform="matrix(1, -0.017, 0.017, 1, -7.195, 416.192)"/>
    <path id="Path_66" data-name="Path 66" class="cls-8" d="M268.073,212.58c25.06.105,44.819,15.318,44.819,15.318s18.232,17.02,21.512,20.732-8.984,0-8.984,0,2.813,7.541,11.27,14.578,14.781,27.84,14.781,27.84-4.785-5.1-6.9-4.893,4.34,8.9,6.9,14.957,4.578,17.467,3.225,16.08" transform="translate(-1 410)"/>
    <path id="Path_67" data-name="Path 67" class="cls-8" d="M333.578,449.719s-4.871-4.045-7.891-14.02-1.252-22.705,0-29.916,5.564-18.588,5.564-18.588" transform="translate(0 410)"/>
    <path id="Path_68" data-name="Path 68" class="cls-8" d="M333.484,449.1s-4.823-4-7.812-13.881-1.24-22.48,0-29.62,5.509-18.4,5.509-18.4" transform="translate(-7 408.91)"/>
    <path id="Path_69" data-name="Path 69" class="cls-8" d="M332.98,448.69s-4.566-3.978-7.4-13.789-1.174-22.332,0-29.424S330.8,387.2,330.8,387.2" transform="translate(-14 407.91)"/>
    <path id="Path_70" data-name="Path 70" class="cls-8" d="M332.322,447.46s-4.231-3.9-6.854-13.513-1.087-21.885,0-28.835S330.3,387.2,330.3,387.2" transform="translate(-21 406.91)"/>
    <path id="Path_71" data-name="Path 71" class="cls-8" d="M331.848,446.162s-3.989-3.815-6.462-13.222-1.025-21.413,0-28.214,4.557-17.531,4.557-17.531" transform="translate(-28 405.91)"/>
    <path id="Path_72" data-name="Path 72" class="cls-8" d="M289.572,410.1s-.931,8.995,0,15.578a30.348,30.348,0,0,0,4.439,11.669,71.16,71.16,0,0,1-11.112-3.371c-4.363-1.923-9.858-3.987-9.858-3.987a46.816,46.816,0,0,1-3.316-10.5c-1.122-5.949.427-14.638,0-14.535S289.572,410.1,289.572,410.1Z" transform="translate(0 410)"/>
    <path id="Path_73" data-name="Path 73" class="cls-1" d="M105.677,370.439a29.909,29.909,0,0,0,9.092-7.056c4.547-5.059,6.566-11.46,7.79-17.979s-6.686-7.837-7.79-16.932-.781-13.249-9.092-12.145S92.21,328.471,92.21,328.471l-3.415,11.8,5.262-1.475,2.556,3.659v4.88l-4.4,13.147v12.447Z" transform="translate(-2 409)"/>
    <path id="Path_75" data-name="Path 75" class="cls-8" d="M354.683,212.58c-24.931.1-44.59,15.24-44.59,15.24s-18.139,16.932-21.4,20.626,8.938,0,8.938,0-2.8,7.5-11.212,14.5-14.705,27.7-14.705,27.7,4.761-5.077,6.863-4.867-4.318,8.853-6.863,14.88-4.555,17.377-3.208,16" transform="translate(-177.502 409.829)"/>
    <path id="Path_76" data-name="Path 76" class="cls-8" d="M360.647,447.951s-7.017-4.349-10.8-9.176-6.04-10.331-5.7-20.269,2.892-21.616,5.7-26.067,8.144-6.025,12.379-3.876S367.2,402.607,366,410.582s-1.5,12.83-5.353,17.134-4.88,2.479-7.634,0,1.05-19.654,3.348-24.415" transform="translate(0 410)"/>
    <g id="Group_3" data-name="Group 3" transform="translate(0 410)">
      <path id="Path_33" data-name="Path 33" class="cls-8" d="M252.055,393.1c1.121-3.76,4.42-3.6,3.958-1.876C255.571,394.1,251.73,393.825,252.055,393.1Z" transform="translate(-3 2)"/>
      <path id="Path_34" data-name="Path 34" class="cls-8" d="M252.055,393.1c1.121-3.76,4.42-3.6,3.958-1.876C255.571,394.1,251.73,393.825,252.055,393.1Z" transform="translate(3 -10)"/>
      <path id="Path_35" data-name="Path 35" class="cls-8" d="M252.055,393.1c1.121-3.76,4.42-3.6,3.958-1.876C255.571,394.1,251.73,393.825,252.055,393.1Z" transform="translate(15 -10)"/>
      <path id="Path_36" data-name="Path 36" class="cls-8" d="M252.055,393.1c1.121-3.76,4.42-3.6,3.958-1.876C255.571,394.1,251.73,393.825,252.055,393.1Z" transform="translate(11)"/>
      <path id="Path_37" data-name="Path 37" class="cls-8" d="M252.055,393.1c1.121-3.76,4.42-3.6,3.958-1.876C255.571,394.1,251.73,393.825,252.055,393.1Z" transform="translate(6 -20)"/>
      <path id="Path_38" data-name="Path 38" class="cls-8" d="M252.055,393.1c1.121-3.76,4.42-3.6,3.958-1.876C255.571,394.1,251.73,393.825,252.055,393.1Z" transform="translate(18 -21)"/>
      <path id="Path_39" data-name="Path 39" class="cls-8" d="M252.055,393.1c1.121-3.76,4.42-3.6,3.958-1.876C255.571,394.1,251.73,393.825,252.055,393.1Z" transform="translate(-9 -9)"/>
      <path id="Path_40" data-name="Path 40" class="cls-8" d="M252.055,393.1c1.121-3.76,4.42-3.6,3.958-1.876C255.571,394.1,251.73,393.825,252.055,393.1Z" transform="translate(-16 2)"/>
    </g>
    <circle id="Ellipse_7" data-name="Ellipse 7" class="cls-1" cx="5" cy="5" r="5" transform="translate(169 695)"/>
    <g id="Ellipse_8" data-name="Ellipse 8" class="cls-9" transform="translate(263 693)">
      <circle class="cls-10" cx="7" cy="7" r="7"/>
      <circle class="cls-11" cx="7" cy="7" r="6"/>
    </g>
    <g id="Group_4" data-name="Group 4" transform="translate(-65.021 410)">
      <path id="Path_33-2" data-name="Path 33" class="cls-8" d="M256.038,393.1c-1.121-3.76-4.42-3.6-3.958-1.876C252.522,394.1,256.362,393.825,256.038,393.1Z" transform="translate(5 2)"/>
      <path id="Path_34-2" data-name="Path 34" class="cls-8" d="M256.038,393.1c-1.121-3.76-4.42-3.6-3.958-1.876C252.522,394.1,256.362,393.825,256.038,393.1Z" transform="translate(-1 -10)"/>
      <path id="Path_35-2" data-name="Path 35" class="cls-8" d="M256.038,393.1c-1.121-3.76-4.42-3.6-3.958-1.876C252.522,394.1,256.362,393.825,256.038,393.1Z" transform="translate(-13 -10)"/>
      <path id="Path_36-2" data-name="Path 36" class="cls-8" d="M256.038,393.1c-1.121-3.76-4.42-3.6-3.958-1.876C252.522,394.1,256.362,393.825,256.038,393.1Z" transform="translate(-9)"/>
      <path id="Path_37-2" data-name="Path 37" class="cls-8" d="M256.038,393.1c-1.121-3.76-4.42-3.6-3.958-1.876C252.522,394.1,256.362,393.825,256.038,393.1Z" transform="translate(-4 -20)"/>
      <path id="Path_38-2" data-name="Path 38" class="cls-8" d="M256.038,393.1c-1.121-3.76-4.42-3.6-3.958-1.876C252.522,394.1,256.362,393.825,256.038,393.1Z" transform="translate(-16 -21)"/>
      <path id="Path_39-2" data-name="Path 39" class="cls-8" d="M256.038,393.1c-1.121-3.76-4.42-3.6-3.958-1.876C252.522,394.1,256.362,393.825,256.038,393.1Z" transform="translate(11 -9)"/>
      <path id="Path_40-2" data-name="Path 40" class="cls-8" d="M256.038,393.1c-1.121-3.76-4.42-3.6-3.958-1.876C252.522,394.1,256.362,393.825,256.038,393.1Z" transform="translate(18 2)"/>
    </g>
    <path id="Path_77" data-name="Path 77" class="cls-8" d="M114.1,372.74s5.669,1.593,9.025,9.1a63.529,63.529,0,0,1,6.087,22.289c.991,9.549,1.833,18.169,0,25.456s-8.995,19.139-8.995,19.139a31.86,31.86,0,0,1-8.478,1.884c-4.582.331-12.32,0-12.32,0s10.247-9.456,12.32-19.638,2.34-15.013,1.361-24.28a58.376,58.376,0,0,0-6.051-21.04c-3.03-6.46-9.336-9.841-10.812-10.008S114.1,372.74,114.1,372.74Z" transform="translate(5 409)"/>
    <path id="Path_78" data-name="Path 78" class="cls-2" d="M34.639,69.746a24.484,24.484,0,0,1-6.717,2.632c-3.88.827-9.71.042-14.539-2.261C7.272,66.668,3.448,58.769,1.011,44.45S.89,24.528,4.292,16.5,18.818,0,18.818,0" transform="matrix(-1, -0.017, 0.017, -1, 111.817, 861.494)"/>
    <path id="Path_79" data-name="Path 79" class="cls-8" d="M350.179,449.949s7.249-4.493,11.155-9.48,6.24-10.673,5.889-20.94-2.988-22.332-5.889-26.93-8.414-6.225-12.789-4-5.131,14.509-3.9,22.747,1.546,13.254,5.53,17.7,5.041,2.561,7.886,0-1.085-20.3-3.458-25.223" transform="translate(-263.501 408.245)"/>
    <path id="Path_80" data-name="Path 80" class="cls-8" d="M324.022,447.46s4.231-3.9,6.854-13.513,1.087-21.885,0-28.835-4.833-17.916-4.833-17.916" transform="translate(-185.3 405.91)"/>
    <path id="Path_81" data-name="Path 81" class="cls-8" d="M324.022,446.162s3.989-3.815,6.462-13.222,1.025-21.413,0-28.214-4.557-17.531-4.557-17.531" transform="translate(-177.826 404.91)"/>
    <path id="Path_82" data-name="Path 82" class="cls-8" d="M324.022,443.934s3.557-3.671,5.762-12.722.914-20.6,0-27.148-4.063-16.868-4.063-16.868" transform="translate(-170 404.91)"/>
    <path id="Path_83" data-name="Path 83" class="cls-8" d="M324.022,442.44s3.568-3.574,5.78-12.387.917-20.062,0-26.433-4.076-16.424-4.076-16.424" transform="translate(-163.022 404.91)"/>
    <path id="Path_84" data-name="Path 84" class="cls-8" d="M324.022,434.477s3.3-3.059,5.34-10.6,1.847-18.724,1-24.177" transform="translate(-155.766 410.874)"/>
    <path id="Path_85" data-name="Path 85" class="cls-1" d="M332,369.385s2.017-2.486,4.482-5.391,4.632-10.978,3.5-19.885-12.111-21.322-19.118-27.7-13-7.672-25.3-5.624S281.322,321,280.135,330.116s7.137,12.871,13.56,17.1,5.491,13.014,5.471,15.105-3.6,3.734-3.6,3.734Z" transform="translate(0 410)"/>
    <path id="Path_86" data-name="Path 86" class="cls-7" d="M229.59,213.115c10.12,0,32.975-5.749,32.975-5.749s16.021-21.382,26.078-26.78,32.181-.5,44.824,5.3,29.87,19.24,38.583,36.5,14.512,30.876,19.269,37,0,30.447,0,30.447-8.547-12.568-12.646-10.41,1.522,7.545,2.018,19.076-5.811,13.4-5.811,13.4-1.214-11.1-7.871-8.637-9.442,6.307-6.432,20.574c1.094,7.322,3.371,16.482,3.371,16.482s-5.135-6.58-7.605,0c-1.316,3.323,2.064,10.864,4.234,18.334.393,7.535.275,9.5,0,11.25s9.328,4,14.3,10.24,6.391,11.832,5.811,22.566-2.148,23.2-5.811,31.332-6.463,14.977-14.3,17.193-11.824,3.479-24.006,2.125-25.912-6.291-34.9-8.764-28.541-8.123-28.541-8.123" transform="translate(-6 411)"/>
    <path id="Path_87" data-name="Path 87" class="cls-7" d="M353.741,213.1c-10.12,0-30.489-5.736-30.489-5.736s-16.021-21.382-26.078-26.78-32.181-.5-44.824,5.3-29.87,19.24-38.583,36.5-14.512,30.876-19.269,37,0,30.447,0,30.447,8.547-12.568,12.646-10.41-1.522,7.545-2.018,19.076,5.811,13.4,5.811,13.4,1.214-11.1,7.871-8.637,9.442,6.307,6.432,20.574c-1.094,7.322-3.371,16.482-3.371,16.482s5.135-6.58,7.605,0c1.316,3.323-2.064,10.865-4.234,18.334-.393,7.535-.275,9.5,0,11.25s-9.328,4-14.3,10.24-6.391,11.832-5.811,22.566,2.148,23.2,5.811,31.332,6.463,14.977,14.3,17.193,11.824,3.479,24.006,2.125,25.912-6.291,34.9-8.764,28.541-8.123,28.541-8.123" transform="translate(-132.23 411)"/>
  </g>
</svg>
